/* XPM */
static char *fabd21db88094348d0548cd9e34bfa2cRUX8bxPqTixfPoFL[] = {
/* columns rows colors chars-per-pixel */
"100 100 73 1 ",
"  c #F8C77F",
". c #F8C87F",
"X c #EEA583",
"o c #EEA883",
"O c #EFA883",
"+ c #EEAA83",
"@ c #EFAE83",
"# c #F0AB83",
"$ c #F0AE83",
"% c #F1AF84",
"& c #F0B083",
"* c #F0B183",
"= c #F1B283",
"- c #F1B483",
"; c #F3B483",
": c #F3B683",
"> c #F4B683",
", c #F2B384",
"< c #F3B484",
"1 c #F3B983",
"2 c #F4BA83",
"3 c #F5BC83",
"4 c #F4BD83",
"5 c #F6BE83",
"6 c #F3BA84",
"7 c #F4B984",
"8 c #F4BE84",
"9 c #F6BE84",
"0 c #F5C083",
"q c #F5C183",
"w c #F7C383",
"e c #F7C483",
"r c #F5C084",
"t c #F5C384",
"y c #F7C284",
"u c #F6C484",
"i c #F6C684",
"p c #F8C783",
"a c #F8C484",
"s c #F7C984",
"d c #F7CA84",
"f c #F9CA83",
"g c #F8CC83",
"h c #F9CC83",
"j c #F9CD83",
"k c #F9C984",
"l c #F8CA84",
"z c #F9CB84",
"x c #F8C987",
"c c #F8CC84",
"v c #F9CC84",
"b c #F9CF84",
"n c #F8CA88",
"m c #F8CB88",
"M c #F8CC88",
"N c #F8CC8A",
"B c #F8CB8C",
"V c #F8CD8D",
"C c #F8CE8C",
"Z c #F8CC8F",
"A c #F8CF8F",
"S c #F8CD90",
"D c #F8CD91",
"F c #F8CF90",
"G c #F8CF94",
"H c #F8D092",
"J c #F8D094",
"K c #F8D195",
"L c #F8D098",
"P c #F8D19A",
"I c #F8D39A",
"U c #F8D29C",
"Y c #F8D49F",
/* pixels */
"llllllllllvvvlvvvvlllffefdfeylmmmxxmxmxlmallllffd fqfeflllllmlmllmlllmlyllladpppllalllallllllllallla",
"lllllllllvvlllllllllafefdfdflllmmlmmmxxmmmlllalfeflflfellmmammmmmmmmmlmllallfefdlallllllllalalllllll",
"lllllllllllalaaalaldlfflfdfelmlmxmmmmmBamlmlllal.f.ffqallmmmmmBmMMMMxmalyfalpfefllallllllalallllllll",
"lllllllluauaaaaaauauufqfdfdflllmmamlmmlmlmlalllllqf fllllmmxMMVVVmVMmmmlfpfl dfplllllllallllllalllal",
"lllvlllauyyy99y9y9yuueppfdhccdlmmmlmmmmlllllyldff.f eflammMVVVCDHVVVBmmlfpp p fddfflallllalllalllall",
"vlvllluuuq122211333qqpudffvvvvvlllymalllllllldflfde .efymmMMVDDDVDVVVmmmpp  p.pdppdllllallllllllllal",
"lvvvllayy41:=::::1333fuldvvbvvvdlllllmlylyllllllee. . fdmmMVDHHCDDDDVSmape.  ..ffdellllllllllllalall",
"lvvvllay81:=====:>332qaufhvvvvvcylllallllflallalf.f  pefmmCVVHDKKHHDBmxmf    .fefpfllallalllalllllll",
"vlvvddu98::@@$$$=>>223ydvvbvvvhlllladpffddpflallp p .qflmmVVDDHHDKVDVVmlf      fddpflalllllllllllall",
"lvvvdduy61=@@##$$=>23qydlvbbvhfflllffpdp fpdllllffp .fpammMVDDDKKDKDVMmmqp  . pppfpdllllalalllalllll",
"vlvvlluy6:=@#$$$$=:233advvvbbvffflflfdpdflfdlllllp   pplmmBVVHDVDHKVVMMlfp  .. lfpfdlllllalllalallla",
"lvvvvayy8:=&$##$==:23paavvbbbvffdfpfpdffdfylalllqfpp pplmmmmCMHDDVVVVmmmlf p ffpddfpalllllllllllalll",
"vlvvvdyy3:>=$$$=--663qullvvbvvjffqfdfddpfelllllafpfdyflflmmMMMVCBVVmmmmlpfl.kllfpfllyllylllallllllla",
"lvvvvauy31>=====:&66uyaalvvvvvjflfefefffdfalallllfp llfamllmvMMMmmmmmmmlfqfpyllaldmlllllalllllllllll",
"vlvllluyq42>=:>>66689yallvvvkvllfefdfdflfellllllflfdlllllllllldmmllllmlylllpllllllllmllllllllllallll",
"lvlvlddyq332>2>2689yyuallvvvvvlllfdfdfuldfllllallfqflylllyllyllllylllllllallmlmlmlmlllylllalalllllal",
"lvlllluaq3p222335yyyuulllkvvvklllllalalllalllllllllllllllfd.ffd.f df.dfdallmxBammmlllypdfefddfdfladl",
"vdllllydf32py3525yuuuuallvvkkvllalllllllllllllallylllalaflfde.efd. pdfpdllylmlmmammMldffdfdffefdllfp",
"dllllldlpyuayy3qyuuuallllvkvvklalllllllalllalallalalllalufdf.d.f.fe  pffllmmmxmxmMmllldpfdfeefeflfll",
"lllllllapplappfppqlalallalllalllllllalllalllllallllllllllffeff.d.dfffddpylmlxmxSmmMMmlfp... d. ffppf",
"llllallllallllllalallallallllllllllllllllllalallllllalllllfpddp.fd. effllmymmmxmVmmmmlldf.f .f..lfpd",
"llalllallvvllllvvlvalllllllllallalalllallllllllllllllllaapdfpfdf.pfdflfulllmmxmmmmmmllpf.d.ee.d  qff",
"lallllllvvbvvvvvvvlklvllllllllallalllalallllllllalllllllllllfdfefddfdflfllmmxxmmmmmllld..ff..h fpfdp",
"llalllllvvvvvvbbvvvlvllllalllallllllllllllalallllllalallllllufdf.dfefdflylmllmxSBmmmldffd. de fyp fp",
"lallylllvvvvbbvvvbvvkvllalllllallllalllalllllllallllllallalllalflffflpqllymllmmmmmmlllllllaf llffqfl",
"llllllllvvvvvvbbvvvvvvlllllallllalllllllllalallllallllllllalllfdfllpdffdllllmylmmmmmllyllllplflldflf",
"lllalllllvvvvMklvvvvvkllllllallllllllllllalallllllalallllalllldlllllppffllmlllllylllalllllylpllyllfd",
"allllylllMvvlkmllllllalllalllllallalllalllllllallalllllalllllllyalllfddpyllylldfllalllllmllmlmmlmlal",
"lllmlllmllllmllmllllalllllallllllllllllllylllllullalalllllllallllllalllllllafdpeyflllllmmmmmmmmmmmal",
"lllymalylllmlylllllllllalalllllllyllalaldfllallflllllllllalllllaalllllalllllefpfffallmlmmmmVBVVmBmmm",
"lllmlmlmmxylmmymalllllllllalalllllylldlldpdffffdllllllllllallllllllllallllll .e f allammMVVDDDDDSSmm",
"almlmlmllmmllllllllalalllllllllalalllfpffppppdpplflalalllalllallllalllalllaldf.f. lalmlxlVDGDDGSBVmm",
"llmlmlmlmllmymlmpddfdff lllalallllllapflfqff f fqffdlllallllllllllllllllallfe....defdlmVBDDGKIGIKDVl",
"lmlmxxmmmmmamllyffppppddallllllllllllffppf.lfqflflf alllllllalallalalllllllpf.f.  fpfdlSSGKIIIUUIKDV",
"mllMBmmmmxlmlllldpfdfdpflllllllaallldfqffl.l. f. pdplllllllalallllalallllllfp.  f.fdlmmVSGLIUYYUIKDV",
"llammmmmmlxmmllldf dfpdfllllallllllappflqffflfqffpdfllalallllllllllllllalyflpd.f edflmmSSGLLUUYUIIHV",
"mlmxmmmmxmxlllllppfdfdppllllllllalllfpfqllfqlfalqffdpflllllalallllalallllluffe...fllmmmBDKIIYYYULIDV",
"lllmmmmmmmxmmlmlfdfppdfdalalllalllladplfalpfppflflpdpdylallllllllllllllalyflf....yfllmmVVKGIUUUULLVV",
"lmmlmmmmmvlmmlmldfdppfdflalllalulllllafullflfdllppfffylllllllllaalllllllllafd q.f lylmmSVDDIIIIDLKDm",
"llamlmllmmlalllappdfdfpflllllllfllllllllaludfpaafddpdlllllllallllllalllllllfffflhelllmmmSVDGGKIKGDVm",
"lllmlmlmllmlllllfdlalllaalllfyfdalllllmlmmalllmmllylapefallfllllllalllalallllfffddefymmmmBSVDDDDVBSl",
"lllllmlylllallllfplllllllllllfeflaalyllmmlmmmmlmmlllfdfppffllalllllllalllllapffffffdldlmmmmmmBVmmmmm",
"alllllllalllalllddllllllllllpefpfalllmmMmMmMmmmmmmlldpdpfpfqalalalllllalllllllalalfdpfdflllmmlmdmmll",
"lllalylllllalllapfylllallallpfdpflallmmMVMMVMVmmmmdfeffelpdflllllllalllllllllyllldfedfpdlllyllyflyll",
"alllllllallllllalallllllllllfeefpllllmmmmVVVVVDlmxlyf.dfefdfllalalllllllalllllallllalldflafef.p.ffpp",
"lllalyllllllalllllllalallyladf.fqflymmmVVVVDVDVVBmllefp fppplllllllllalllllalllllllldff.fl.d d dfyfl",
"lllllllllllalllllllalallllfe p.pf llxmSVDDHVDDDVDmmlp .e efdllllllllllalllllalllalllfdfey.ffp..f fll",
"llllllllllllllllallllllldfdfp fqpfplmxBBDDHDDDHVSmmypp. f.pplllalalllalllalllllallalefdfffe.fefefqly",
"llllllllllylllallllalllllllf f  plalMSVDHVKDDKDBmVlyp    pdfqflflalllalllallalllllysefdffdflfypflfdf",
"llallvllllllllllalllllllaldfpf   almmvVDDKDKKKDSBmml       ffllullllllalllllllllllfdfdfedfpfffppfedf",
"lllllyddllallllllllllllalylpy... fllMSBDHHDHDKSSVmmlq.    fllllllllllalllllalllvladfd.df ffqppfpefef",
"alaaluuyuldllllallalallllllpf pf.yymMdmVVDDDVDSBmMMyfp  pppflallallllllllllllllvvvgfdffdpdlfpfppfefd",
"aluauuudululallllalllllllllpppq.fspfmmmSVDVVBBSmmmlylk fppeflllllllallllvvvkvvvvvvvvgdffffdpppffdfal",
"auu9qqqqeualldylllllllllyllflffppfldammBVMVVSBmSmmmlfappfdfplallallllalkvkvkvvvvvbvvcggddpfpffppfell",
"uy9923qqqyuulullllllllllllllppppalyllmmmmmmmmmmlmmlllfppefflalallllllalkvvvvvvbbbbbbvclddfdpllaleala",
"uyy633343yuydlllllllllllllalfdfdllllllllllmlmlmlallaflflfdllllllllallllkkkkvvbbbbbbbvllfppdfalllllll",
"yy3331143uyudulllllllllllllllllalllallfdfdffdffdfdallllldpalllallllllllvvlvlvbbcbvvvvccdlllllalaalll",
"ua3311443yudddllllllllllllalalllallllfffdfd fd ddfllllaldflllllllalalllklvllvvvgvvvvcccvllallllallaa",
"yyq233443yuuddlllllllllllallllllllllefded fp f.ffqdplallplylllllllllallvvlllcdddcvdvllddlallalallall",
"uyq33344quuuydalllllllllllalllllllalfdf.fe  e.d lffflluffdllllallllalllklalldddddudydadlllalllllllll",
"uuq33qqqqaulddlllllllllllalllllalllldfeffdp p ....fdfqfllallllllkkvkllllllaldeeeeeeeqdulllllkkkkllll",
"duuuyyyyyuaalayllllallalllllalllllalfdfdeffdfdfdflefdflfflllalllvlkvllallaaayqqrqeqqpyalalalkvkkllvl",
"lyuayuuudallallllllllllllllalllllalllldfplf.dfdffefdflpffllalalvlvlvllylluauyqq4443qqyuullllkvlvlvla",
"aldlludaulalllalalllalllalllllalllylldfedfddfef.dfdfpfffplllllvlvlvvlllluuyy844111133yyuaalavkvlvlvl",
"llydduluulllalllalllllalllalllallllalllllllflllalllllflflllllllvvvvvlllauuy88:::&=:139yyudlylvvvvvvl",
"lldllllllllllalalllalllllallllllalllllllalldylllllllalfllalallvvvvvvllaayy86--,-@===668yuullllvvvvvv",
"lllllllllalallalllllalllllallllllllllllaalyllllllllyllllllalalvvvvvvlllaqq3:-&@+X@@=:&89uddlvvvvvvvl",
"lalllllalllllllllalllllalllllllallapalllllllllylamlmmllylllllllvvvvvllape31>-@+++X$$,:69uadllvbvvvvl",
"lllllllalalllllallalllllllllalllallddffpflllllllmamlmllyllyldfhhbvvvlalyq32==+XXXX##%,69yylllvvvvbvl",
"llllllllllllallllalllllllalllllalllfppddfllllllllmlmlmlmmlllfdhhbbbvllyfq31:=$XXXXX#%,69ylullvvbvbvv",
"lalllllllllallplllalalllllallllldpfpfd.fddllmlmmmmmlmxmlylfddfhhvbbvllpyq32=$#XXXX##%,69yualvvvbvvvl",
"lllllllllllllldflllllllalalllallfpddf dfpfylllmllmmmamlmddff.dhhvbvllfey322>$$#O#X#$,,69uulllvvbvvvl",
"lulldfddfdfed fdalllllllllllallllallfefdllymllmlmmxmmxmaalll.ffhvvbvlalqqq22=,+$$+@,,69yuddllllvvvll",
"fffffe.fdfdffpeffllalalllllllllalllfdfeflllllammmxmxxmxBmlladffhbhvvlllpp3326:===@,::69yydllllvvvlll",
"dfdfdf.f.f pfdppfdllllalalllllllllfpfefdplllmlmmxBxmBxmmlyllfefdhvvvlllaauy977=:,<&699yuuddllllvvvll",
"pdfe fdedef.e fdfllllalllllalallyldddfdfplllmllmmxmxxmlmmllldfdfglvvllllluuyy9999998yyuadddyllllllal",
"fdd pf.fp.p feefddlyllalallllllllllffdfeflllllmaxmmammmlllyklld dflllllyaaaaaauyyyyyaalallllllllllal",
"fpfee pdefd..ffppflllllllllalalldflpefdflpalmllmlxmmlmlmmlllflfdfdlllllllllallayyudualllllalalalllll",
"ddpfff .fp fdfepflllalllllllalalfefefdfdllllllllmmmmmmmlllllpflfdfdlllllllllllllllllllllllllllllalll",
"pfppdpef.dfep fdllallllalllllllldfdfdfllalllmlllalllllallmllflflfddlllllllvlllllllllllllllallllallla",
"llylfflyeflafpalfdlldfulllalllalallfefflfullfdfdlmlllddfvlhdhddhfllllllllllvlvvvlvlvvklllllllllaalll",
"llllqlllflflyfllefllfdlllallllllllllldaldflldfdflallldfdvddcgchlllllllllllllvvvvvvvlvlllllllalllllll",
"llllfllldfylfflyflplefdfllallllllllllylllylffefellylyldfdlcccccdvllllllalllvlvvvvvvvkllllllallllllll",
"lllmlllmldlddfllllqffdfelllllllalalllllllldfdfdfllflllfddvcccccdllllalllllllvvvvvvvlvllaallllalllall",
"llmmMMMMmlmmlmmlllefdfdfllllalllllllllalllfefdfdafdfdehfdlllduddlllllllllllvlvvvvvvlvlllalllllllllll",
"lmmBMVDVDVVBVmmmlafld. flalllllalalallllaldfdfdflffef.dfllddddddlaalllalllllvvvvvvvllllllllalalllala",
"lMmVVVHDDDDDVVVmllp  fedflalllllllalalllllllfdfedfdffdededyuududallalaallllvlvvvvvvvvlllllllalalllal",
"MmVDDKKKKKGGVBSmmlpf  .flalllalllllllllallafefdffdfddfcdedeueeeeaaalallkllllvvkkvlvllllallllllllllll",
"MVVDKKIIIIGGGDVmffp    .fdlalllallllllllllalallldfddvldyueeqq3q3uuuddallkkvkvvvlllllllllalllllllllal",
"lVVKKIIIYUULKKDBmpp    ypllllllllalalllllllllllafdvldlddu3qq4qqqyuauydalkvkkkkvlalllallalllalallllll",
"MVDKIIUUUUULKGDmdl      plllllllllalalllallllllldfddvdyuuq34414qyyulaallkkvkvkklllllllllllllalalalll",
"mVDKGIYUYUUIIDVSml     fplylllallllllllalllallllfdfvclduuqq4444q9yuullalkkkvkvkallallllllallllllllla",
"MvVKIKIUUIIGKDVBmlf     fallllllllalalllllllllllldldcldyuq444444yyuaaallkkvkkvvlllllllllllalllalalll",
"MVDHDIIIIIIGKVDVmyy  . pllllalallllllllalalllalaldvvddduyq44144q9uaualalkvkkvvkaalallalallllllllllll",
"MMVDDKDKKKKDDVVmddf .. ffdlalallalllllllalalllallldvlydyuqq4444qyyulalllvkvkkvvllallllalalllllllllll",
"mMMVVDDVVDDVVVMmyf ff.qppllllllllllallllllllllllllvvlddduyr98yr8yuaulalllllllalllllllllllllalllalall",
"lmmVmVVVVVBSmmmmlllppfdfefdfllllllalllalllalllalalllllluauuyyy9yuuuuldllllllllllllalllalllalllalllll",
"lllmmmMmmmmmllmallllflfdfdlulalalllllllllalllllllllllllluauyyuuudyddudlylllllllllllllalllllllllllall",
"lllmlmammlmmllllylllyfdfllllllalllllalllllalllllllllalauduuuyuaududdydllllllllllalllllalllllalllalal",
"lllllmallllyallallllfffelalllllllllalllalllllllalalllllldydudauuuduudlldlllllllllllalllllllalllallll"
};
